o Button
v -0.2 0 0.4
v 0 0 0
v -0.2 0 -0.4
v 0.2 0 -0.4
v 0.2 0 0.4
v 0 0 -0.7
v 0 0 0.7
v -0.6 0 0.4
v -0.6 0 0.7
v 0.6 0 0.7
v 0.6 0 0.4
v 0.6 0 -0.4
v 0.6 0 -0.7
v -0.6 0 -0.7
v -0.6 0 -0.4
vt 0.3575 0.6425
vt 0.5 0.5
vt 0.3575 0.3575
vt 0.6425 0.3575
vt 0.6425 0.6425
vt 0.5 0.215
vt 0.5 0.785
vt 0.28625 0.71375
vt 0.215 0.785
vt 0.785 0.785
vt 0.71375 0.71375
vt 0.71375 0.28625
vt 0.785 0.215
vt 0.215 0.215
vt 0.28625 0.28625
vn 0 1 0
g Button
f 1/1/1 2/2/1 3/3/1
f 4/4/1 2/2/1 5/5/1
f 3/3/1 2/2/1 4/4/1
f 4/4/1 6/6/1 3/3/1
f 5/5/1 2/2/1 1/1/1
f 1/1/1 7/7/1 5/5/1
f 1/1/1 8/8/1 9/9/1
f 9/9/1 7/7/1 1/1/1
f 10/10/1 11/11/1 5/5/1
f 5/5/1 7/7/1 10/10/1
f 4/4/1 12/12/1 13/13/1
f 13/13/1 6/6/1 4/4/1
f 14/14/1 15/15/1 3/3/1
f 3/3/1 6/6/1 14/14/1
#h 
